<svg width="1918" height="1880" viewBox="0 0 1918 1880" fill="none" xmlns="http://www.w3.org/2000/svg">
<g clip-path="url(#clip0_138_377)">
<path d="M408.256 902.386C566.849 922.77 702.21 783.636 819.761 675.134C923.485 579.396 959.762 439.711 1037.33 321.741C1132.85 176.485 1316.16 75.2024 1328.31 -98.2706C1340.68 -274.853 1222.01 -437.791 1099.47 -565.413C980.512 -689.306 823.367 -777.864 653.305 -801.283C494.634 -823.133 336.726 -766.205 195.893 -689.843C73.7434 -623.612 5.43459 -499.08 -90.1497 -398.17C-191.252 -291.434 -359.137 -224.887 -382.133 -79.6075C-405.119 65.6115 -284.792 191.513 -202.798 313.501C-132.167 418.584 -31.6647 489.575 59.4842 577.417C176.268 689.964 247.467 881.72 408.256 902.386Z" fill="#F4F0FD"/>
</g>
<defs>
<clipPath id="clip0_138_377">
<rect width="1918" height="1881" fill="white" transform="translate(0 -1)"/>
</clipPath>
</defs>
</svg>
