<svg width="1354" height="1880" viewBox="0 0 1354 1880" fill="none" xmlns="http://www.w3.org/2000/svg">
<g clip-path="url(#clip0_125_345)">
<mask id="mask0_125_345" style="mask-type:luminance" maskUnits="userSpaceOnUse" x="0" y="-63" width="1354" height="2200">
<path d="M-9.61651e-05 -63L0 2137L1354 2137L1354 -63.0001L-9.61651e-05 -63Z" fill="white"/>
</mask>
<g mask="url(#mask0_125_345)">
<path d="M1354 2021L-4.72083e-05 941L-7.1796e-05 378.5L1354 1458.5L1354 2021Z" fill="url(#paint0_linear_125_345)" fill-opacity="0.35"/>
<path d="M1354 1272L-4.72083e-05 192L-7.69758e-05 -489L1354 591L1354 1272Z" fill="url(#paint1_linear_125_345)" fill-opacity="0.35"/>
<path d="M1354 56.9999L-3.52095e-05 1137L0 1942.5L1354 862.5L1354 56.9999Z" fill="url(#paint2_linear_125_345)" fill-opacity="0.35"/>
<path d="M1354 669L-3.75044e-05 1749L0 2607L1354 1527L1354 669Z" fill="url(#paint3_linear_125_345)" fill-opacity="0.35"/>
<path d="M1354 933.993L104.066 -63L1354 -63.0001L1354 933.993Z" fill="url(#paint4_linear_125_345)" fill-opacity="0.35"/>
<path d="M1354 2137L1354 1140.01L104.066 2137L1354 2137Z" fill="url(#paint5_linear_125_345)" fill-opacity="0.35"/>
</g>
</g>
<defs>
<linearGradient id="paint0_linear_125_345" x1="1354" y1="2021" x2="-258.329" y2="691.872" gradientUnits="userSpaceOnUse">
<stop stop-color="#4992FF" stop-opacity="0.15"/>
<stop offset="0.66" stop-color="#4992FF" stop-opacity="0"/>
</linearGradient>
<linearGradient id="paint1_linear_125_345" x1="1354" y1="1272" x2="-347.883" y2="-36.5464" gradientUnits="userSpaceOnUse">
<stop stop-color="#4992FF" stop-opacity="0.15"/>
<stop offset="0.66" stop-color="#4992FF" stop-opacity="0"/>
</linearGradient>
<linearGradient id="paint2_linear_125_345" x1="1354" y1="56.9999" x2="-432.651" y2="1340.02" gradientUnits="userSpaceOnUse">
<stop stop-color="#4992FF" stop-opacity="0.22"/>
<stop offset="0.66" stop-color="#4992FF" stop-opacity="0"/>
</linearGradient>
<linearGradient id="paint3_linear_125_345" x1="1354" y1="669" x2="-465.741" y2="1940.38" gradientUnits="userSpaceOnUse">
<stop stop-color="#4992FF" stop-opacity="0.22"/>
<stop offset="0.66" stop-color="#4992FF" stop-opacity="0"/>
</linearGradient>
<linearGradient id="paint4_linear_125_345" x1="1354" y1="933.993" x2="381.959" y2="-284.658" gradientUnits="userSpaceOnUse">
<stop stop-color="#4992FF" stop-opacity="0.15"/>
<stop offset="0.66" stop-color="#4992FF" stop-opacity="0"/>
</linearGradient>
<linearGradient id="paint5_linear_125_345" x1="1354" y1="1140.01" x2="381.959" y2="2358.66" gradientUnits="userSpaceOnUse">
<stop stop-color="#4992FF" stop-opacity="0.22"/>
<stop offset="0.66" stop-color="#4992FF" stop-opacity="0"/>
</linearGradient>
<clipPath id="clip0_125_345">
<rect width="2200" height="1354" fill="white" transform="translate(0 2137) rotate(-90)"/>
</clipPath>
</defs>
</svg>